<svg width="77" height="98" viewBox="0 0 77 98" fill="none" xmlns="http://www.w3.org/2000/svg">
<path d="M48.1199 72.716L53.0238 97.2357H13.4859L23.6002 71.7966C11.7815 65.1934 7.6822 59.7617 9.50141 48.8094C8.27543 46.3574 8.20699 35.8331 9.50142 29.1937C11.2671 20.1369 13.2668 14.3951 19.3093 2.52858C20.96 -0.713231 21.8359 -0.755698 23.6002 2.52858C28.8956 12.386 31.3861 18.4813 33.1016 29.1937C36.6721 28.8124 38.6874 28.7495 42.2964 28.8872C45.3092 16.3332 48.0237 10.405 51.4913 2.52858C53.0238 -0.84286 54.2498 -0.84286 56.0887 2.52858C63.4635 17.1713 64.9771 34.0976 63.4446 44.825C66.3017 60.7749 63.6562 67.2878 48.1199 72.716Z" fill="#020202"/>
<path d="M58.5407 48.1964C58.8471 53.4068 55.4704 57.2677 51.4912 57.3913C47.0654 57.4412 43.829 54.3263 44.4419 48.1964C45.0548 42.0665 48.1198 39.0015 51.4912 39.0015C55.2152 39.0015 58.2343 42.986 58.5407 48.1964Z" fill="#7BCD00"/>
<ellipse cx="49.9588" cy="48.8094" rx="2.14547" ry="3.67795" fill="black"/>
<path d="M34.3424 48.1964C34.6489 54.3263 30.971 57.0329 26.3735 57.0848C21.9477 57.1347 17.1637 54.3263 17.4702 48.1964C17.7767 42.0665 22.9559 39.0015 26.6799 39.0015C30.4039 39.0015 34.0359 42.0665 34.3424 48.1964Z" fill="#7BCD00"/>
<ellipse cx="27.8911" cy="48.1964" rx="2.14547" ry="3.67795" fill="black"/>
<rect x="38.0055" y="54.3263" width="4.29001" height="1.83858" rx="0.919289" fill="#3D3636"/>
<path d="M4.73523 72.7597C9.17385 70.1411 11.9833 68.6945 16.6683 66.631C17.0525 66.4617 17.1491 65.9585 16.8523 65.6617C16.672 65.4814 16.3959 65.4363 16.1672 65.549C11.4302 67.8837 8.65955 69.3341 4.19339 71.8162C3.91588 71.9704 3.82861 72.3291 4.00472 72.5932C4.16518 72.8339 4.48609 72.9067 4.73523 72.7597Z" fill="black"/>
<path d="M1.89791 66.4858C6.27652 65.2842 8.69541 64.6325 12.8715 63.7204C13.2151 63.6454 13.3014 63.1939 13.0088 62.9988C12.9217 62.9408 12.8137 62.9196 12.711 62.9396C8.25554 63.806 5.67595 64.3908 1.62282 65.4771C1.27749 65.5697 1.12461 65.9743 1.32292 66.2718C1.44802 66.4595 1.68042 66.5455 1.89791 66.4858Z" fill="black"/>
<path d="M0.630012 60.1322L10.2664 59.8646C10.6604 59.8536 10.9432 59.4808 10.8476 59.0984C10.7774 58.8174 10.5211 58.6231 10.2316 58.6314L0.595484 58.9067C0.263891 58.9162 0 59.1877 0 59.5195C0 59.8647 0.284933 60.1418 0.630012 60.1322Z" fill="black"/>
<path d="M70.1107 71.9339C65.9607 70.1085 63.2652 69.1194 58.5567 67.695C58.2732 67.6092 58.1817 67.2516 58.3911 67.0421C58.4844 66.9488 58.6202 66.9091 58.7493 66.9363C63.6884 67.9758 66.4151 68.9493 70.6085 70.8215C70.9979 70.9953 71.0914 71.5056 70.7898 71.8072C70.6115 71.9855 70.3415 72.0355 70.1107 71.9339Z" fill="black"/>
<path d="M75.2114 65.2674C73.2756 64.3804 70.7689 63.8876 62.3429 63.5498C62.0636 63.5386 61.9268 63.2 62.1245 63.0023C62.1847 62.9421 62.2683 62.9083 62.3535 62.9085C69.5315 62.9268 72.9059 63.0066 75.7113 64.2972C75.8962 64.3823 76.0109 64.5693 76.0109 64.7728C76.0109 65.1777 75.5795 65.4361 75.2114 65.2674Z" fill="black"/>
<path d="M75.3792 58.2693C71.9856 58.0847 65.8999 58.2942 63.656 58.6805C63.3239 58.7377 62.8316 58.3941 62.8316 58.0571C62.8316 57.8539 62.9882 57.6843 63.1908 57.6671C67.8766 57.2693 70.7057 57.1179 75.4196 57.0879C75.7451 57.0858 76.0109 57.3494 76.0109 57.6749C76.0109 58.0177 75.7215 58.2879 75.3792 58.2693Z" fill="black"/>
</svg>
